<svg width="34.000000" height="22.000000" viewBox="0 0 34 22" fill="none" xmlns="http://www.w3.org/2000/svg" xmlns:xlink="http://www.w3.org/1999/xlink">
	<desc>
			Created with Pixso.
	</desc>
	<defs/>
	<path d="M1.5 19L32.5 19C33.32 19 34 19.67 34 20.5C34 21.32 33.32 22 32.5 22L1.5 22C0.67 22 0 21.32 0 20.5C0 19.67 0.67 19 1.5 19Z" fill="#FFC725" fill-opacity="1.000000" fill-rule="nonzero"/>
	<path d="M1.5 10L32.5 10C33.32 10 34 10.67 34 11.5C34 12.32 33.32 13 32.5 13L1.5 13C0.67 13 0 12.32 0 11.5C0 10.67 0.67 10 1.5 10Z" fill="#FFC725" fill-opacity="1.000000" fill-rule="nonzero"/>
	<path d="M1.5 0L32.5 0C33.32 0 34 0.67 34 1.5C34 2.32 33.32 3 32.5 3L1.5 3C0.67 3 0 2.32 0 1.5C0 0.67 0.67 0 1.5 0Z" fill="#FFC725" fill-opacity="1.000000" fill-rule="nonzero"/>
</svg>
