<svg width="63.000000" height="56.000000" viewBox="0 0 63 56" fill="none" xmlns="http://www.w3.org/2000/svg" xmlns:xlink="http://www.w3.org/1999/xlink">
	<desc>
			Created with Pixso.
	</desc>
	<defs/>
	<rect width="42.000000" height="56.000000" fill="#FBB731" fill-opacity="1.000000"/>
	<rect width="42.000000" height="56.000000" stroke="#F37335" stroke-opacity="0" stroke-width="0.000000"/>
	<path d="M40.5 7L43.5 7C54.2644 7.01245 62.9876 15.7356 63 26.5C63 27.3284 62.3284 28 61.5 28L22.5 28C21.6716 28 21 27.3284 21 26.5C21.0124 15.7356 29.7356 7.01245 40.5 7ZM40.4999 10C31.9722 10.0101 24.8533 16.5085 24.0674 25L59.9324 25C59.1467 16.5085 52.0276 10.0101 43.5 10L40.4999 10Z" clip-rule="evenodd" fill="#FFFFFF" fill-opacity="1.000000" fill-rule="evenodd"/>
	<path d="M61.5001 37.1084L55.5 37.1084C55.1754 37.1084 54.8596 37.2128 54.6 37.4056L49.5 41.196L44.4 37.4056C44.1403 37.2126 43.8245 37.1084 43.4999 37.1084L22.5001 37.1084C21.6716 37.1084 21 37.7739 21 38.5948L21 41.5677C21.0049 45.6704 24.3599 48.9951 28.5 49L55.5 49C59.6401 48.9951 62.9951 45.6704 63 41.5677L63 38.5948C63.0001 37.7739 62.3285 37.1084 61.5001 37.1084ZM55.5 46.0271C57.9853 46.0271 60 44.0305 60 41.5677L60 40.0813L55.9995 40.0813L50.4 44.2434C49.8666 44.6398 49.1333 44.6398 48.6 44.2434L43.0005 40.0813L24 40.0813L24 41.5677C24 44.0305 26.0147 46.0271 28.5 46.0271L55.5 46.0271Z" clip-rule="evenodd" fill="#FFFFFF" fill-opacity="1.000000" fill-rule="evenodd"/>
	<path d="M61.5 31.03L22.5 31.03C21.67 31.03 21 31.71 21 32.55C21 33.39 21.67 34.07 22.5 34.07L61.5 34.07C62.32 34.07 63 33.39 63 32.55C63 31.71 62.32 31.03 61.5 31.03Z" fill="#FFFFFF" fill-opacity="1.000000" fill-rule="nonzero"/>
	<path d="M34.4 15.85C33.57 15.85 32.89 16.53 32.89 17.37L32.89 18.89C32.89 19.73 33.57 20.4 34.4 20.4C35.24 20.4 35.92 19.73 35.92 18.89L35.92 17.37C35.92 16.53 35.24 15.85 34.4 15.85Z" fill="#FFFFFF" fill-opacity="1.000000" fill-rule="nonzero"/>
	<path d="M42 15.85C41.16 15.85 40.48 16.53 40.48 17.37L40.48 18.89C40.48 19.73 41.16 20.4 42 20.4C42.83 20.4 43.51 19.73 43.51 18.89L43.51 17.37C43.51 16.53 42.83 15.85 42 15.85Z" fill="#FFFFFF" fill-opacity="1.000000" fill-rule="nonzero"/>
	<path d="M49.59 15.85C48.75 15.85 48.07 16.53 48.07 17.37L48.07 18.89C48.07 19.73 48.75 20.4 49.59 20.4C50.42 20.4 51.1 19.73 51.1 18.89L51.1 17.37C51.1 16.53 50.42 15.85 49.59 15.85Z" fill="#FFFFFF" fill-opacity="1.000000" fill-rule="nonzero"/>
</svg>
