<svg width="18.000000" height="18.000000" viewBox="0 0 18 18" fill="none" xmlns="http://www.w3.org/2000/svg" xmlns:xlink="http://www.w3.org/1999/xlink">
	<desc>
			Created with Pixso.
	</desc>
	<defs/>
	<path d="M17.8862 2.30591C17.7877 2.18091 17.6385 2.10815 17.4808 2.10815L3.66159 2.10815L3.27515 0.408508C3.22076 0.169403 3.01099 0 2.76923 0L0.519226 0C0.232483 0 0 0.235992 0 0.527069C0 0.818115 0.232483 1.05408 0.519226 1.05408L2.35617 1.05408L4.97925 12.5915C5.0336 12.8306 5.24341 13 5.48517 13L15.8884 13C16.1752 13 16.4077 12.764 16.4077 12.473C16.4077 12.1819 16.1752 11.946 15.8884 11.946L5.89825 11.946L5.4989 10.1892L15.9231 10.1892C16.166 10.1892 16.3764 10.0183 16.4297 9.77786L17.9873 2.75085C18.022 2.59464 17.9848 2.43094 17.8862 2.30591ZM5.25922 9.13513L15.5077 9.13513L16.8317 3.16217L3.90125 3.16217L5.25922 9.13513Z" clip-rule="evenodd" fill="#443737" fill-opacity="1.000000" fill-rule="evenodd"/>
	<path d="M6 16C6 14.8972 6.89722 14 8 14C9.10281 14 10 14.8972 10 16C10 17.1028 9.10278 18 8 18C6.89719 18 6 17.1028 6 16ZM7.09091 16C7.09091 16.5013 7.49872 16.9091 8 16.9091C8.50128 16.9091 8.90909 16.5013 8.90909 16C8.90909 15.4987 8.50128 15.0909 8 15.0909C7.49872 15.0909 7.09091 15.4987 7.09091 16Z" clip-rule="evenodd" fill="#443737" fill-opacity="1.000000" fill-rule="evenodd"/>
	<path d="M12 16C12 14.8972 12.8972 14 14 14C15.1028 14 16 14.8972 16 16C16 17.1028 15.1028 18 14 18C12.8972 18 12 17.1028 12 16ZM13.0909 16C13.0909 16.5013 13.4987 16.9091 14 16.9091C14.5013 16.9091 14.9091 16.5013 14.9091 16C14.9091 15.4987 14.5013 15.091 14 15.091C13.4987 15.091 13.0909 15.4987 13.0909 16Z" clip-rule="evenodd" fill="#443737" fill-opacity="1.000000" fill-rule="evenodd"/>
</svg>
